#!OML:ASF F:\VICON\USERDATA\INSTALL\rory3\rory3.ASF
:FULLY-SPECIFIED
:DEGREES
270
root -1.63051 18.0381 -2.18695 9.16237 -20.5848 14.8203
lowerback 13.6642 -2.96739 2.54936
upperback 7.24379 -3.60028 7.08759
thorax 0.333176 -1.91438 6.51276
lowerneck -10.5961 -2.78458 -12.478
upperneck 38.275 -0.989222 -1.08132
head 15.4148 -2.37147 1.5756
rclavicle -6.20208e-014 3.18055e-015
rhumerus -43.3022 18.7326 -85.3353
rradius 37.8602
rwrist 45.3513
rhand -46.3037 18.7191
rfingers 7.12502
rthumb -19.0377 -10.3691
lclavicle -6.20208e-014 3.18055e-015
lhumerus -46.157 -28.3294 103.408
lradius 79.1131
lwrist -16.0181
lhand -44.9926 14.0793
lfingers 7.12502
lthumb -17.7766 43.2868
rfemur -34.8618 -11.1711 3.02923
rtibia 33.4534
rfoot -12.8425 -12.0806
rtoes 12.848
lfemur -60.4744 13.1958 -35.5342
ltibia 85.204
lfoot -5.57374 -3.40102
ltoes -19.7228
271
root -1.61745 18.011 -2.21325 8.99991 -20.4791 14.7441
lowerback 13.8023 -3.07483 2.47674
upperback 7.28413 -3.74312 7.12801
thorax 0.324853 -1.9901 6.62489
lowerneck -10.7529 -2.74126 -12.5828
upperneck 38.3023 -0.903427 -0.996201
head 15.4616 -2.34368 1.64151
rclavicle -7.4743e-014 -5.08889e-014
rhumerus -43.515 18.5333 -85.1793
rradius 38.5391
rwrist 45.1822
rhand -46.1188 18.9182
rfingers 7.12502
rthumb -18.8599 -10.1875
lclavicle -7.4743e-014 -5.08889e-014
lhumerus -46.4547 -28.3041 103.809
lradius 79.0348
lwrist -16.0959
lhand -44.9821 12.819
lfingers 7.12502
lthumb -17.7664 42.0274
rfemur -35.0047 -11.4825 3.13696
rtibia 33.9578
rfoot -12.8347 -11.6362
rtoes 12.3859
lfemur -59.8336 13.3458 -35.5679
ltibia 84.6203
lfoot -5.89586 -2.91411
ltoes -19.2755
272
root -1.604 17.9834 -2.23809 8.87386 -20.3735 14.6645
lowerback 13.9085 -3.119 2.45032
upperback 7.23749 -3.79209 7.12677
thorax 0.225099 -2.01377 6.654
lowerneck -10.6098 -2.72975 -12.5058
upperneck 38.2385 -0.948024 -0.962596
head 15.3949 -2.34459 1.63705
rclavicle -5.56597e-014 -6.36111e-015
rhumerus -43.8754 17.9083 -84.9848
rradius 39.1891
rwrist 45.2129
rhand -45.7282 19.3141
rfingers 7.12502
rthumb -18.4842 -9.82772
lclavicle -5.56597e-014 -6.36111e-015
lhumerus -46.9795 -28.4439 104.332
lradius 78.9726
lwrist -16.2221
lhand -45.0706 12.0382
lfingers 7.12502
lthumb -17.8516 41.2389
rfemur -35.2512 -11.9242 3.2787
rtibia 34.5969
rfoot -12.8273 -11.0687
rtoes 12.3563
lfemur -59.1762 13.4733 -35.6182
ltibia 83.9771
lfoot -6.3833 -2.56901
ltoes -19.5064
273
root -1.59118 17.9526 -2.26048 8.86477 -20.4942 14.597
lowerback 13.8239 -3.04965 2.37199
upperback 7.23194 -3.71719 7.06835
thorax 0.256673 -1.97742 6.61952
lowerneck -10.5123 -2.75527 -12.331
upperneck 38.1574 -1.04074 -0.988333
head 15.3315 -2.35843 1.58265
rclavicle 4.77083e-015 1.59028e-014
rhumerus -44.0498 17.0831 -84.7432
rradius 39.6164
rwrist 45.3835
rhand -45.7529 19.9758
rfingers 7.12502
rthumb -18.508 -9.16374
lclavicle 4.77083e-015 1.59028e-014
lhumerus -47.4156 -28.6052 104.759
lradius 78.8565
lwrist -16.3191
lhand -44.8408 11.5269
lfingers 7.12502
lthumb -17.6305 40.7475
rfemur -35.757 -12.2922 3.44286
rtibia 35.2897
rfoot -12.8426 -10.4143
rtoes 13.1243
lfemur -58.685 13.7499 -35.7427
ltibia 83.334
lfoot -6.97149 -2.27968
ltoes -19.78
274
root -1.57571 17.9101 -2.30457 8.82067 -20.0057 14.5355
lowerback 14.0335 -3.24584 2.22992
upperback 7.12235 -3.964 7.16784
thorax 0.0717524 -2.1036 6.86027
lowerneck -10.4237 -2.70924 -12.4962
upperneck 38.1052 -0.974528 -0.916662
head 15.2846 -2.34374 1.65246
rclavicle -3.33958e-014 5.40694e-014
rhumerus -44.2508 16.6771 -84.4558
rradius 40.16
rwrist 45.6253
rhand -45.5004 19.1946
rfingers 7.12502
rthumb -18.2651 -9.96781
lclavicle -3.33958e-014 5.40694e-014
lhumerus -47.7837 -28.3078 105.196
lradius 78.7992
lwrist -16.1964
lhand -44.857 11.5191
lfingers 7.12502
lthumb -17.6461 40.7384
rfemur -36.0458 -12.9838 3.62027
rtibia 35.9391
rfoot -12.9264 -10.0558
rtoes 13.4662
lfemur -58.2584 13.5505 -35.7357
ltibia 82.7153
lfoot -7.2209 -2.16872
ltoes -19.7347
275
root -1.55982 17.8736 -2.33177 8.86053 -19.9781 14.2801
lowerback 13.965 -3.23957 2.25896
upperback 7.19843 -3.96424 7.19962
thorax 0.190282 -2.10665 6.87063
lowerneck -10.5025 -2.73401 -12.4881
upperneck 37.989 -1.0345 -0.818302
head 15.2475 -2.35066 1.68301
rclavicle -1.74931e-014 4.13472e-014
rhumerus -44.3911 16.1 -84.2048
rradius 40.894
rwrist 45.6122
rhand -45.0231 17.6721
rfingers 7.12502
rthumb -17.8059 -11.5327
lclavicle -1.74931e-014 4.13472e-014
lhumerus -47.9575 -28.2368 105.452
lradius 78.7794
lwrist -15.9391
lhand -45.0717 11.5576
lfingers 7.12502
lthumb -17.8527 40.7582
rfemur -36.4432 -13.3182 3.98414
rtibia 36.4741
rfoot -12.814 -9.68129
rtoes 13.3489
lfemur -57.9086 13.7333 -35.6027
ltibia 82.0911
lfoot -7.53174 -2.05372
ltoes -18.9901
276
root -1.53979 17.8526 -2.33012 8.67895 -20.4239 13.9717
lowerback 13.8749 -3.08838 2.42772
upperback 7.43745 -3.77776 7.1239
thorax 0.456335 -2.01406 6.65319
lowerneck -10.6822 -2.82337 -12.3894
upperneck 37.9605 -1.18925 -0.736535
head 15.282 -2.39079 1.6748
rclavicle -7.95139e-015 -6.67916e-014
rhumerus -44.5105 15.5103 -83.9846
rradius 41.5521
rwrist 45.2939
rhand -44.989 17.5126
rfingers 7.12502
rthumb -17.773 -11.6952
lclavicle -7.95139e-015 -6.67916e-014
lhumerus -48.1179 -28.2318 105.662
lradius 78.7665
lwrist -15.6857
lhand -44.9599 11.1778
lfingers 7.12502
lthumb -17.745 40.3881
rfemur -36.664 -13.4163 4.33644
rtibia 36.9646
rfoot -12.6235 -9.07106
rtoes 13.2309
lfemur -57.2581 14.3293 -35.5193
ltibia 81.4541
lfoot -8.13304 -1.60921
ltoes -18.3143
277
root -1.52176 17.8334 -2.3369 8.32104 -20.7846 13.8152
lowerback 14.0875 -2.9318 2.37241
upperback 7.5321 -3.57561 7.07293
thorax 0.423162 -1.91592 6.61457
lowerneck -10.5745 -2.92032 -12.5255
upperneck 38.0536 -1.40222 -0.501526
head 15.3215 -2.47241 1.76534
rclavicle -7.95139e-014 9.22361e-014
rhumerus -44.9502 15.0337 -83.8318
rradius 42.3134
rwrist 44.4436
rhand -45.1 18.0928
rfingers 7.12502
rthumb -17.8799 -11.1053
lclavicle -7.95139e-014 9.22361e-014
lhumerus -48.57 -28.062 106.085
lradius 78.8024
lwrist -15.7199
lhand -44.8961 10.8854
lfingers 7.12502
lthumb -17.6837 40.1013
rfemur -36.752 -13.5682 4.51922
rtibia 37.521
rfoot -12.5433 -8.44309
rtoes 12.9299
lfemur -56.5416 14.9405 -35.5909
ltibia 80.9445
lfoot -8.66062 -0.865458
ltoes -15.7489
278
root -1.50543 17.7987 -2.37489 8.2659 -20.6116 13.6474
lowerback 14.261 -2.88654 2.2818
upperback 7.44857 -3.50674 7.08326
thorax 0.24099 -1.88137 6.68249
lowerneck -10.297 -2.97787 -12.5476
upperneck 37.9977 -1.60598 -0.290879
head 15.2423 -2.52996 1.82985
rclavicle 5.88403e-014 -2.22639e-014
rhumerus -45.4947 14.5226 -83.8037
rradius 43.2367
rwrist 43.2928
rhand -45.0889 18.4677
rfingers 7.12502
rthumb -17.8692 -10.7314
lclavicle 5.88403e-014 -2.22639e-014
lhumerus -49.018 -27.9907 106.456
lradius 78.7772
lwrist -15.9606
lhand -45.2395 11.2349
lfingers 7.12502
lthumb -18.0141 40.4207
rfemur -37.0682 -14.0768 4.812
rtibia 38.1068
rfoot -12.5429 -8.00611
rtoes 12.8687
lfemur -56.4021 15.0974 -35.684
ltibia 80.7329
lfoot -8.88103 0.217203
ltoes -11.2881
